<?xml version="1.0" encoding="utf-8"?>
<!-- Generator: Adobe Illustrator 20.0.0, SVG Export Plug-In . SVG Version: 6.00 Build 0)  -->
<svg version="1.1" id="Ebene_1" xmlns="http://www.w3.org/2000/svg" xmlns:xlink="http://www.w3.org/1999/xlink" x="0px" y="0px"
	 viewBox="0 0 50 50" style="enable-background:new 0 0 50 50;" xml:space="preserve">
<style type="text/css">
	.st0{fill:#F6A409;}
	.st1{fill:#FFFFFF;}
	.st2{fill:#F6A409;stroke:#FFFFFF;stroke-width:2;stroke-miterlimit:10;}
</style>
<g>
	<circle class="st0" cx="25" cy="25" r="25"/>
	<g>
		<path class="st1" d="M32.7,32.9c-0.4,0.1-0.8,0.2-1.3,0.2c-3.8,0-9.5-13.4-9.5-17.9c0-1.6,0.4-2.2,0.9-2.7
			C18.2,13,12.6,14.8,10.8,17c-0.4,0.5-0.6,1.4-0.6,2.5c0,7,7.5,22.8,12.7,22.8C25.3,42.3,29.4,38.3,32.7,32.9L32.7,32.9z"/>
		<path class="st1" d="M30.3,12c4.9,0,9.7,0.8,9.7,3.5c0,5.6-3.5,12.3-5.3,12.3c-3.2,0-7.2-8.9-7.2-13.4C27.5,12.4,28.3,12,30.3,12z
			"/>
	</g>
</g>
</svg>
