<?xml version="1.0" encoding="utf-8"?>
<!-- Generator: Adobe Illustrator 19.0.1, SVG Export Plug-In . SVG Version: 6.00 Build 0)  -->
<!DOCTYPE svg PUBLIC "-//W3C//DTD SVG 1.1//EN" "http://www.w3.org/Graphics/SVG/1.1/DTD/svg11.dtd">
<svg version="1.1" id="Layer_1" xmlns="http://www.w3.org/2000/svg" xmlns:xlink="http://www.w3.org/1999/xlink" x="0px" y="0px"
	 viewBox="0 0 100 100" enable-background="new 0 0 100 100" xml:space="preserve">
<g>
	
		<radialGradient id="SVGID_1_" cx="40.713" cy="66.8808" r="59.7631" gradientTransform="matrix(1 0 0 -1 0 102)" gradientUnits="userSpaceOnUse">
		<stop  offset="0" style="stop-color:#0E0E17;stop-opacity:0.85"/>
		<stop  offset="0.7669" style="stop-color:#0E0E17"/>
	</radialGradient>
	<rect x="4.2" y="5.4" fill="url(#SVGID_1_)" width="91.7" height="89.2"/>
</g>
<g>
	<path fill="#31C5F0" d="M0,1.3v97.5h100V1.3H0z M4.2,5.4h91.7v89.2H4.2V5.4z"/>
</g>
<path fill="#31C5F0" d="M24.2,24.1c0-0.3,0.6-0.5,0.9-0.5c2.7-0.1,6.6-0.2,10.7-0.2c11.6,0,16,6.3,16,14.4
	c0,10.6-7.7,15.1-17.1,15.1c-1.6,0-2.1-0.1-3.2-0.1v16c0,0.3-0.1,0.5-0.5,0.5h-6.4c-0.3,0-0.5-0.1-0.5-0.5V24.1z M31.6,46.2
	c1,0.1,1.7,0.1,3.4,0.1c4.9,0,9.5-1.7,9.5-8.3c0-5.3-3.3-8-8.8-8c-1.6,0-3.2,0.1-4,0.1C31.6,30.1,31.6,46.2,31.6,46.2z M67.4,41.3
	c-3.3,0-4.4,1.7-4.4,3c0,1.5,0.8,2.5,5.2,4.8c6.5,3.2,8.6,6.2,8.6,10.7c0,6.7-5.1,10.2-12,10.2c-3.6,0-6.7-0.8-8.5-1.8
	c-0.3-0.1-0.3-0.3-0.3-0.7v-6.1c0-0.4,0.2-0.6,0.5-0.3c2.6,1.7,5.6,2.5,8.4,2.5c3.3,0,4.7-1.4,4.7-3.2c0-1.5-1-2.8-5.2-5
	c-5.9-2.8-8.4-5.7-8.4-10.5c0-5.4,4.2-9.8,11.5-9.8c3.6,0,6.1,0.6,7.5,1.2c0.3,0.2,0.4,0.6,0.4,0.8v5.7c0,0.3-0.2,0.6-0.6,0.4
	C72.8,42,70.1,41.3,67.4,41.3z"/>
</svg>
