<?xml version="1.0" encoding="utf-8"?>
<!-- Generator: Adobe Illustrator 19.1.0, SVG Export Plug-In . SVG Version: 6.00 Build 0)  -->
<svg version="1.1" id="Ebene_1" xmlns="http://www.w3.org/2000/svg" xmlns:xlink="http://www.w3.org/1999/xlink" x="0px" y="0px"
	 viewBox="0 0 165.7 165.7" style="enable-background:new 0 0 165.7 165.7;" xml:space="preserve">
<style type="text/css">
	.st0{fill:#5DB7D8;}
	.st1{fill:#FFFFFF;}
	.st2{fill:#F6A40B;}
	.st3{fill:url(#SVGID_1_);}
	.st4{fill:#6D6D6D;}
	.st5{fill:#8F9D32;}
	.st6{fill:#39565C;}
</style>
<linearGradient id="SVGID_1_" gradientUnits="userSpaceOnUse" x1="111.1018" y1="5.1601" x2="54.5624" y2="160.5007">
	<stop  offset="0.308" style="stop-color:#4AC0EF"/>
	<stop  offset="1" style="stop-color:#0189C6"/>
</linearGradient>
<path class="st3" d="M159.8,113c3.6-9.3,5.7-19.5,5.7-30.1c0-2.6-0.1-5.1-0.3-7.6C149,61.8,135,55,117,55
	c-19.2,0-25.9,8.3-25.9,16.9C91.1,92.5,130.2,96.5,159.8,113 M138,21.4c-14.6-13.1-34-21.2-55.2-21.2c-45.6,0-82.6,37-82.6,82.6
	c0,45.6,37,82.6,82.6,82.6c18.4,0,35.4-6,49.1-16.2c-24.6-18.5-89.7-21.8-89.7-75.4c0-28.9,23.4-53.7,76.4-53.7
	C125.7,20.1,132.1,20.5,138,21.4"/>
</svg>
